<?xml version="1.0" standalone="no"?>
<!DOCTYPE svg PUBLIC "-//W3C//DTD SVG 20010904//EN"
 "http://www.w3.org/TR/2001/REC-SVG-20010904/DTD/svg10.dtd">
<svg version="1.0" xmlns="http://www.w3.org/2000/svg"
 width="460.000000pt" height="460.000000pt" viewBox="0 0 460.000000 460.000000"
 preserveAspectRatio="xMidYMid meet">

<g transform="translate(0.000000,460.000000) scale(0.100000,-0.100000)"
fill="#000000" stroke="none">
<path d="M2133 4582 c-6 -9 -28 -26 -49 -37 -22 -11 -52 -32 -68 -47 -22 -21
-32 -25 -38 -16 -6 10 -8 10 -8 0 0 -21 -40 -73 -50 -67 -5 3 -19 -6 -31 -19
-17 -20 -26 -23 -36 -15 -9 8 -14 7 -19 -4 -6 -16 -35 -32 -33 -19 1 4 0 16
-1 27 -1 14 -3 15 -7 6 -8 -20 -35 -51 -55 -62 -13 -7 -15 -5 -11 12 5 18 1
16 -26 -10 -17 -16 -31 -35 -31 -41 0 -6 -5 -8 -12 -4 -8 5 -9 2 -5 -10 4 -10
3 -15 -3 -11 -6 3 -10 1 -10 -4 0 -6 -6 -11 -14 -11 -9 0 -19 -20 -27 -55 -10
-45 -17 -57 -36 -61 -25 -7 -30 -20 -10 -27 21 -7 2 -17 -49 -26 -27 -4 -58
-13 -69 -20 -19 -11 -18 -11 5 -5 52 14 54 14 20 -2 -33 -15 -50 -30 -50 -46
0 -4 6 -5 13 -2 10 3 13 -6 11 -35 -2 -48 -9 -61 -35 -61 -10 0 -19 -4 -19 -9
0 -5 8 -7 19 -4 24 6 36 -13 13 -22 -9 -3 -19 -6 -21 -5 -2 1 -10 -12 -19 -29
-10 -22 -22 -31 -41 -32 l-26 -1 25 -7 25 -7 -25 -9 c-14 -5 -29 -8 -34 -6 -5
1 -12 -3 -16 -8 -3 -6 -24 -17 -45 -25 -22 -7 -39 -19 -38 -25 2 -6 -2 -11 -7
-11 -18 0 -11 -20 8 -21 11 -1 9 -4 -8 -9 l-25 -8 28 -1 c26 -1 27 -2 13 -17
-17 -16 -12 -39 6 -28 6 4 8 -1 3 -15 -5 -17 -2 -21 14 -21 28 0 26 -8 -6 -42
-24 -25 -21 -42 3 -18 6 6 15 6 24 0 13 -8 11 -12 -8 -26 -18 -12 -20 -19 -12
-29 8 -10 8 -16 -2 -22 -16 -10 -19 -53 -4 -50 7 1 10 -12 8 -33 -11 -133 -11
-132 4 -119 8 6 17 10 19 7 7 -6 13 -48 14 -88 1 -25 4 -31 10 -21 8 12 11 8
16 -15 3 -16 11 -49 17 -74 12 -49 18 -141 9 -136 -3 2 -4 -19 -2 -46 2 -29 6
-45 11 -39 4 8 14 -20 24 -66 10 -43 22 -94 27 -114 5 -20 9 -48 9 -62 0 -14
10 -47 22 -74 l21 -48 8 70 c28 247 47 308 97 321 14 4 22 14 22 26 0 12 8 27
18 34 10 8 12 13 5 14 -18 0 -16 20 2 20 8 0 15 5 15 10 0 6 -6 9 -12 8 -7 -2
-14 7 -16 20 -2 12 1 22 7 22 6 0 11 9 11 20 0 13 5 18 15 14 8 -4 15 -1 15 5
0 6 -4 11 -10 11 -5 0 -10 4 -10 8 0 5 14 7 30 4 18 -3 30 0 30 7 0 6 5 11 11
11 6 0 9 -6 6 -14 -4 -10 0 -12 14 -9 10 3 19 14 19 24 0 12 7 19 20 19 13 0
20 7 20 20 0 11 -5 20 -10 20 -12 0 -33 47 -32 73 0 9 -3 17 -8 17 -5 0 -14
-8 -20 -17 -9 -15 -10 -12 -5 12 4 16 12 33 18 37 7 4 13 19 14 34 3 34 9 40
27 25 8 -7 21 -9 27 -5 9 5 7 11 -6 20 -17 13 -17 14 -1 20 10 4 21 2 26 -6 5
-8 9 -9 14 -1 4 6 5 15 2 20 -8 13 18 21 44 14 12 -3 25 -2 29 3 3 5 21 14 39
21 25 9 32 9 32 -2 0 -10 12 -10 61 3 38 9 63 11 67 5 11 -15 117 9 117 27 0
11 8 14 29 12 15 -2 26 0 23 5 -3 4 8 9 24 10 19 1 27 -2 23 -8 -9 -15 36 0
54 17 7 8 19 11 25 7 6 -4 28 -6 49 -4 21 1 47 -3 58 -9 14 -8 20 -8 20 0 0 6
5 8 10 5 6 -4 8 -10 5 -15 -2 -4 8 -13 24 -20 22 -9 35 -9 50 0 20 10 25 7 22
-13 -1 -4 8 -3 19 3 17 9 20 8 20 -10 0 -12 4 -19 8 -16 5 3 30 -1 58 -9 27
-7 45 -14 40 -14 -5 -1 -2 -8 5 -18 8 -9 13 -18 11 -20 -6 -8 32 -53 45 -53
11 0 7 9 -11 31 -27 31 -34 59 -16 59 6 0 10 -7 10 -16 0 -8 5 -12 10 -9 6 3
13 -1 16 -9 3 -9 12 -16 20 -16 18 0 18 9 -3 32 -15 17 -15 18 5 18 14 0 22 6
22 16 0 20 16 14 81 -28 27 -17 46 -35 43 -40 -3 -5 -12 -7 -20 -4 -8 3 -14 1
-14 -4 0 -6 -10 -10 -22 -10 -29 0 -55 -16 -44 -27 5 -4 11 -2 13 5 7 17 49
15 68 -4 23 -23 3 -44 -25 -26 -16 10 -20 10 -20 -2 0 -7 6 -19 14 -25 18 -15
9 -51 -14 -51 -22 0 -80 -29 -80 -40 0 -11 32 0 42 14 13 20 16 1 7 -44 -14
-62 -11 -103 6 -116 8 -6 12 -14 8 -17 -3 -4 0 -7 8 -7 8 0 20 5 26 11 7 7 19
8 30 4 10 -5 24 -7 31 -6 6 1 12 -3 12 -9 0 -7 6 -10 13 -7 18 7 49 -13 43
-28 -2 -7 3 -15 13 -18 12 -3 20 -18 25 -45 3 -23 17 -53 31 -68 23 -25 24
-28 9 -45 -17 -19 -11 -39 12 -39 8 0 20 -11 26 -25 6 -14 15 -25 20 -25 19 0
6 -18 -17 -22 -22 -5 -25 -2 -20 16 4 11 3 16 -2 11 -18 -22 -63 -38 -93 -32
-38 8 -110 -13 -110 -32 0 -9 -7 -11 -22 -7 -38 11 -68 14 -68 6 0 -4 -19 -10
-42 -14 -23 -4 -46 -12 -50 -19 -5 -9 -14 -9 -38 0 -16 6 -28 8 -25 4 2 -5
-21 -8 -53 -8 -31 0 -66 -3 -76 -8 -13 -6 -17 -5 -13 2 9 14 -16 23 -34 12 -9
-5 -22 -3 -36 7 -21 13 -23 13 -23 -2 0 -11 -6 -15 -20 -11 -13 3 -18 1 -13
-6 4 -7 0 -8 -11 -4 -14 6 -17 3 -12 -9 5 -12 2 -15 -11 -10 -9 4 -19 3 -22
-2 -3 -5 -20 -12 -38 -15 -24 -5 -31 -3 -27 7 4 10 -10 12 -55 11 -33 -1 -58
2 -55 7 3 4 -9 8 -25 8 -17 0 -31 4 -31 9 0 4 -27 14 -59 21 -45 9 -67 10 -92
1 -43 -15 -50 -14 -42 5 5 14 2 16 -20 10 -17 -4 -31 -1 -42 11 -11 11 -40 18
-91 21 -41 2 -74 7 -74 11 0 3 -15 6 -32 5 -41 0 -54 6 -37 17 10 6 5 9 -16 9
-24 0 -27 2 -15 11 11 8 7 9 -18 5 -19 -3 -47 -17 -64 -31 -16 -14 -35 -22
-41 -18 -7 3 -9 2 -4 -2 4 -5 -1 -17 -10 -27 -11 -12 -18 -38 -19 -70 -1 -42
2 -51 17 -55 10 -3 16 -10 12 -16 -3 -5 -1 -7 5 -4 16 11 42 -3 42 -22 0 -19
-45 -63 -54 -54 -10 10 -7 -32 5 -65 6 -17 17 -33 25 -36 8 -3 14 -12 14 -21
0 -19 24 -19 44 0 13 13 16 13 31 -1 11 -11 13 -20 6 -27 -6 -6 -6 -18 -1 -33
5 -13 7 -24 5 -24 -8 0 27 -51 52 -76 12 -12 24 -20 26 -17 8 7 47 -21 47 -33
0 -6 27 -14 62 -18 60 -6 95 0 166 30 18 8 40 14 50 14 18 0 82 50 144 113 27
27 38 47 38 67 0 19 11 42 29 62 28 31 31 32 70 22 26 -7 41 -8 41 -1 0 5 7 4
15 -3 9 -7 18 -10 22 -6 4 3 19 -6 35 -21 22 -21 28 -36 29 -72 2 -76 11 -96
42 -93 21 3 41 -9 90 -53 55 -51 96 -75 190 -114 63 -25 164 -32 260 -16 50 8
93 19 95 25 2 5 10 10 19 10 8 0 26 9 40 20 14 11 31 20 38 20 7 0 16 7 19 16
4 9 9 14 13 10 4 -3 20 6 35 21 27 26 30 27 40 10 9 -16 12 -17 31 -4 12 8 27
12 33 10 12 -4 6 -62 -8 -80 -6 -7 -4 -13 4 -15 11 -4 11 -8 0 -21 -10 -12
-11 -21 -2 -36 6 -12 7 -21 2 -21 -6 0 -12 -9 -15 -20 -4 -15 -14 -20 -36 -20
-22 0 -31 -5 -31 -16 0 -10 6 -14 15 -10 19 7 19 -4 0 -30 -8 -12 -12 -24 -9
-26 2 -3 -2 -11 -11 -18 -8 -7 -15 -28 -15 -47 0 -36 -24 -71 -35 -53 -9 15
-25 2 -25 -22 0 -11 -8 -22 -19 -25 -18 -5 -39 -34 -23 -32 23 4 21 -4 -8 -30
-18 -15 -31 -34 -28 -41 2 -8 -11 -29 -29 -48 -18 -18 -31 -38 -27 -43 3 -5
-2 -9 -11 -9 -9 0 -27 -11 -41 -25 -14 -14 -42 -29 -62 -34 -21 -4 -36 -13
-34 -20 2 -9 -3 -9 -18 -1 -15 8 -20 8 -21 -2 0 -7 -4 -3 -9 10 -10 24 -35 30
-43 10 -4 -9 -8 -10 -14 -3 -4 6 -28 11 -53 12 -24 0 -46 6 -48 12 -2 6 -17
18 -34 27 l-30 15 6 115 c4 74 3 114 -4 114 -5 0 -10 -4 -10 -9 0 -9 -43 -21
-94 -26 -16 -2 -45 6 -64 17 -31 17 -40 18 -90 7 -31 -6 -65 -17 -77 -24 -11
-7 -36 -12 -55 -10 -19 1 -49 -4 -65 -11 -40 -18 -94 -12 -114 13 -20 24 -79
63 -67 44 7 -10 2 -12 -24 -6 -24 5 -31 4 -25 -5 6 -9 3 -9 -13 -1 -21 11 -52
6 -52 -9 0 -4 10 -20 21 -35 13 -15 22 -40 21 -58 0 -17 5 -38 11 -46 9 -12 9
-13 0 -7 -8 4 -13 1 -13 -9 0 -9 4 -13 10 -10 5 3 10 1 10 -4 0 -6 -9 -11 -20
-11 -11 0 -20 -4 -20 -10 0 -5 -13 -10 -30 -10 -23 0 -30 -4 -30 -20 0 -11 -5
-20 -11 -20 -5 0 -8 4 -5 9 5 8 -23 9 -86 3 -9 -1 -24 -9 -33 -18 -23 -23 -63
-10 -71 23 -7 25 -8 25 -15 8 -7 -19 -8 -19 -8 -1 -1 14 -6 17 -23 13 -21 -5
-21 -5 -5 7 22 17 22 26 -3 26 -24 0 -26 15 -4 24 9 4 14 9 11 12 -3 3 -17 -2
-31 -11 -25 -17 -26 -16 -34 4 -4 12 -18 27 -31 34 -22 11 -62 98 -64 139 -1
9 -3 15 -5 13 -15 -15 -40 53 -67 178 -3 16 -6 109 -6 207 l0 178 -52 -3
c-125 -9 -266 -16 -377 -21 l-119 -4 -3 32 c-3 30 -6 33 -35 32 -60 -2 -60 -2
-59 -41 1 -35 -1 -37 -37 -45 -76 -16 -77 -18 -77 -128 0 -54 -3 -105 -6 -114
-4 -11 -20 -16 -53 -17 -25 -1 -71 -5 -101 -9 -38 -6 -24 -7 49 -3 l104 6 -5
-147 c-3 -80 -8 -149 -11 -153 -4 -3 -24 -9 -44 -12 -36 -6 -38 -8 -44 -51 -6
-46 -12 -46 -10 0 2 28 10 26 -203 31 -53 2 -82 6 -70 10 10 4 13 8 6 8 -7 1
-25 -7 -39 -17 -26 -16 -85 -36 -148 -48 -16 -3 -40 -7 -52 -10 -13 -2 -23 -9
-23 -15 0 -6 6 -9 13 -6 8 3 20 1 28 -4 12 -7 12 -9 -1 -9 -12 -1 -11 -3 3
-14 17 -13 16 -16 -13 -44 l-30 -30 0 -526 c0 -289 1 -526 3 -526 12 2 144 73
187 101 30 20 85 53 121 72 36 20 87 53 112 75 100 82 320 175 637 267 296 87
307 91 395 175 106 100 128 116 80 55 -22 -27 -42 -52 -45 -55 -12 -12 -60
-87 -70 -110 -20 -45 -42 -85 -59 -105 -18 -22 -54 -95 -46 -95 3 0 13 17 24
37 10 21 36 56 56 78 38 42 37 34 -3 -25 -13 -19 -21 -43 -18 -53 3 -11 -6
-37 -20 -58 -28 -45 -29 -52 -9 -69 8 -7 15 -18 15 -24 0 -6 -4 -5 -9 3 -7 11
-11 10 -21 -5 -9 -16 -11 -16 -6 -2 3 10 0 20 -6 24 -8 5 -9 -7 -3 -42 10 -65
11 -85 1 -112 -7 -21 -6 -23 14 -17 15 5 20 4 16 -4 -4 -6 -2 -11 3 -11 6 0
11 8 11 18 1 29 29 -29 30 -60 0 -23 19 -53 20 -31 0 4 12 16 26 27 l26 18
-24 -36 c-13 -20 -28 -34 -34 -32 -7 3 -10 -3 -7 -15 3 -10 0 -19 -6 -19 -6 0
-11 -6 -11 -13 0 -14 -61 -77 -74 -77 -4 0 -5 7 -2 16 3 9 2 12 -5 9 -6 -4 -8
-14 -5 -22 4 -9 1 -22 -5 -30 -7 -7 -10 -16 -7 -18 3 -3 22 15 42 40 21 25 43
45 50 45 7 0 23 19 36 43 30 54 63 101 73 106 5 2 12 14 17 27 5 13 15 23 21
22 7 -2 15 8 19 22 6 23 9 21 33 -30 14 -30 29 -69 33 -85 17 -72 92 -210 142
-264 37 -39 91 -119 97 -144 8 -29 25 -37 25 -12 0 8 -4 15 -10 15 -5 0 -10 5
-10 10 0 6 9 10 19 10 14 0 18 -5 14 -19 -3 -10 0 -22 6 -25 6 -4 11 0 11 10
0 16 1 16 18 1 13 -12 36 -17 73 -17 l54 0 -30 18 c-16 10 -48 41 -70 68 -21
27 -42 51 -45 54 -3 3 -18 22 -33 43 -16 20 -40 49 -55 62 -15 14 -23 25 -17
25 5 0 1 6 -8 13 -37 26 -127 165 -141 217 l-8 25 19 -26 c10 -14 23 -24 29
-22 13 4 37 -38 32 -57 -2 -8 3 -14 9 -15 7 0 29 -18 48 -40 32 -36 37 -38 48
-23 12 15 17 13 57 -23 24 -21 49 -39 55 -39 6 0 22 -11 35 -25 13 -14 21 -25
18 -25 -3 0 7 -14 23 -31 20 -22 28 -38 23 -51 -6 -19 11 -48 28 -48 6 0 8 10
5 23 -6 22 -6 22 14 -2 11 -13 17 -31 14 -42 -4 -10 1 -23 13 -31 10 -7 21
-21 25 -30 6 -16 27 -18 245 -18 l238 0 30 34 c31 35 133 116 147 116 4 0 54
35 110 78 56 43 134 99 174 125 134 86 153 116 274 450 21 59 48 126 60 150
26 50 90 131 106 134 29 6 60 -16 66 -46 4 -20 11 -29 20 -25 7 2 80 -20 163
-50 292 -106 347 -129 703 -297 68 -33 125 -59 127 -59 2 0 4 442 4 981 l0
981 -37 -7 c-83 -15 -796 -95 -850 -95 -16 0 -23 6 -23 19 0 15 10 19 68 24
853 73 849 73 841 82 -3 2 -56 -1 -119 -6 -152 -12 -673 -58 -730 -63 -39 -4
-43 -3 -27 8 15 12 16 14 2 20 -10 4 -14 13 -10 28 3 13 8 37 10 53 2 17 4 32
4 35 1 3 5 -1 10 -8 7 -11 9 -11 14 2 4 9 1 15 -6 13 -6 -1 -13 9 -15 23 -3
25 -2 25 14 5 13 -15 15 -16 11 -3 -3 9 -1 18 6 21 6 2 11 20 11 40 0 19 2 34
6 32 5 -3 8 21 11 87 1 15 7 26 13 25 6 -1 10 8 8 21 -3 17 2 22 19 22 20 0
21 1 5 25 -15 23 -15 25 1 25 10 0 14 4 8 8 -11 7 -35 48 -35 57 0 4 5 3 10 0
6 -3 10 -1 10 6 0 10 3 10 12 1 22 -22 28 -12 14 22 -11 26 -11 36 -3 40 7 2
4 5 -5 5 -22 1 -24 27 -2 35 12 4 14 14 9 36 -5 21 -3 30 6 30 8 0 6 7 -6 20
-17 18 -14 25 8 21 5 -1 6 12 2 29 -4 19 -3 30 4 30 17 0 13 27 -13 78 l-24
48 29 11 c16 6 29 16 29 23 0 6 -4 8 -10 5 -6 -3 -7 1 -4 9 3 9 1 16 -5 16 -6
0 -11 6 -11 14 0 7 -10 20 -22 28 -20 13 -22 24 -23 104 -1 95 11 128 32 90
10 -16 12 -17 13 -4 0 9 -12 30 -26 47 -22 27 -24 32 -9 37 9 4 24 -1 35 -11
35 -32 21 -5 -20 38 -40 43 -105 152 -76 128 10 -9 16 -10 16 -3 0 6 -24 29
-52 51 -29 22 -65 50 -80 63 -15 13 -40 33 -56 46 -17 12 -32 32 -35 43 -5 20
-5 20 14 3 10 -9 19 -12 19 -6 0 6 -10 19 -23 29 -24 19 -42 63 -26 63 5 0 9
7 9 15 0 19 -36 20 -47 1 -15 -26 -65 -24 -62 2 1 9 0 19 -1 22 -1 3 -8 32
-15 65 -9 45 -13 52 -14 28 0 -17 -4 -40 -7 -50 -5 -15 -4 -15 5 -3 8 12 11 8
11 -17 0 -20 -5 -33 -12 -33 -10 0 -9 -3 1 -9 8 -5 9 -11 3 -15 -6 -3 -13 2
-17 13 -3 10 -18 22 -33 26 -14 3 -46 24 -69 46 -23 21 -47 39 -52 39 -5 0
-11 7 -13 16 -2 10 -28 25 -68 39 -36 12 -78 27 -95 33 -104 38 -180 54 -206
45 -17 -7 -46 -7 -80 -1 -30 5 -66 11 -81 13 -15 2 -41 11 -58 20 -25 13 -69
15 -263 15 -207 -1 -234 -3 -244 -18z m-346 -244 c-3 -8 -6 -5 -6 6 -1 11 2
17 5 13 3 -3 4 -12 1 -19z m2038 -528 c3 -5 1 -10 -4 -10 -6 0 -11 5 -11 10 0
6 2 10 4 10 3 0 8 -4 11 -10z m-2560 -120 c-3 -5 -11 -10 -16 -10 -6 0 -7 5
-4 10 3 6 11 10 16 10 6 0 7 -4 4 -10z m-5 -80 c0 -5 -8 -10 -17 -10 -15 0
-16 2 -3 10 19 12 20 12 20 0z m1686 -165 c-3 -8 -1 -15 4 -15 6 0 10 -5 10
-12 0 -8 -6 -7 -16 4 -9 9 -13 21 -10 27 10 16 19 13 12 -4z m394 -751 c0 -8
7 -14 15 -14 8 0 14 -5 13 -12 -2 -7 3 -13 10 -14 6 -1 15 -2 20 -3 9 -1 37
-63 34 -73 -3 -12 3 -9 28 12 25 22 40 18 40 -9 0 -10 3 -21 7 -25 4 -3 7 -15
8 -26 1 -15 -5 -20 -22 -20 -13 0 -23 5 -23 10 0 6 8 10 17 10 28 0 5 13 -29
17 l-32 3 22 -20 c27 -26 27 -34 0 -60 l-22 -20 32 0 c25 0 32 4 32 20 0 11 5
20 10 20 6 0 10 -6 10 -14 0 -8 6 -16 14 -19 8 -3 17 -29 21 -64 11 -82 13
-195 3 -180 -7 10 -12 4 -10 -14 1 -3 -6 -6 -14 -6 -10 0 -11 4 -4 11 13 13
13 39 0 31 -5 -3 -10 3 -10 15 0 14 4 19 13 14 8 -5 8 -2 -2 9 -12 15 -11 17
3 17 9 0 16 5 16 10 0 6 -5 10 -11 10 -6 0 -9 7 -5 15 7 19 2 19 -16 2 -11
-12 -18 -9 -40 15 -14 15 -20 28 -13 28 8 0 12 12 10 33 -2 24 -8 33 -24 35
-12 2 -26 13 -30 25 -5 12 -18 30 -30 41 -11 10 -18 23 -14 29 4 6 0 8 -9 4
-12 -4 -14 -1 -11 14 3 10 1 19 -4 19 -6 0 -23 12 -39 26 -16 15 -22 23 -14
19 8 -3 6 1 -4 9 -11 9 -16 16 -10 16 5 0 1 5 -9 11 -10 6 -32 8 -50 5 -31 -5
-31 -5 4 7 23 8 34 17 31 26 -3 8 3 20 12 27 22 15 76 0 76 -22z m130 -74 c0
-5 -4 -10 -10 -10 -5 0 -10 5 -10 10 0 6 5 10 10 10 6 0 10 -4 10 -10z m255
-179 c3 -5 1 -12 -5 -16 -5 -3 -10 1 -10 9 0 18 6 21 15 7z m-3127 -1088 c-10
-2 -26 -2 -35 0 -10 3 -2 5 17 5 19 0 27 -2 18 -5z m1757 -53 c-3 -5 -21 -9
-38 -9 l-32 1 30 8 c43 11 47 11 40 0z m-1755 -89 c0 -9 -47 -21 -81 -21 -24
0 -25 17 -1 23 31 8 82 7 82 -2z m1433 -384 c-2 -4 -11 -3 -19 4 -12 10 -12
14 -2 20 13 9 30 -10 21 -24z m-617 -23 c-9 -8 -16 -19 -16 -24 0 -22 -21 -61
-30 -55 -9 5 4 33 42 94 7 12 14 17 16 11 2 -5 -4 -17 -12 -26z m726 -14 c-3
-25 -7 -28 -18 -19 -10 8 -18 8 -27 0 -10 -8 -17 -7 -25 1 -8 8 -15 8 -27 -2
-12 -10 -15 -10 -15 3 0 27 26 43 72 45 44 3 45 3 40 -28z m-661 -293 c-10 -9
-11 -8 -5 6 3 10 9 15 12 12 3 -3 0 -11 -7 -18z m273 -242 c3 -9 0 -12 -9 -9
-7 3 -16 12 -19 19 -3 9 0 12 9 9 7 -3 16 -12 19 -19z m123 -159 c-3 -8 1 -17
10 -20 9 -4 14 -9 11 -11 -3 -3 -16 0 -30 7 -26 14 -27 38 -1 38 9 0 13 -6 10
-14z m47 -41 c3 -8 1 -15 -4 -15 -6 0 -10 7 -10 15 0 8 2 15 4 15 2 0 6 -7 10
-15z"/>
<path d="M3890 3816 c0 -2 8 -10 18 -17 15 -13 16 -12 3 4 -13 16 -21 21 -21
13z"/>
<path d="M478 3553 c-19 -5 -24 -18 -10 -27 16 -10 90 -14 103 -5 10 6 8 9 -9
9 -12 0 -33 6 -45 13 -12 8 -30 12 -39 10z"/>
<path d="M2724 3318 c-4 -6 -3 -8 3 -5 6 4 14 -1 17 -10 5 -13 9 -14 19 -4 9
9 9 14 -3 21 -20 13 -27 12 -36 -2z"/>
<path d="M1757 3126 c-10 -26 -9 -74 2 -58 4 8 11 13 15 13 32 -4 34 7 8 39
-17 21 -19 21 -25 6z"/>
<path d="M1595 3000 c-3 -5 -1 -10 4 -10 6 0 11 5 11 10 0 6 -2 10 -4 10 -3 0
-8 -4 -11 -10z"/>
<path d="M1415 2397 c-4 -35 -5 -73 -3 -83 2 -10 7 16 12 60 4 43 5 80 2 83
-2 2 -7 -24 -11 -60z"/>
<path d="M110 2420 c0 -6 4 -10 9 -10 5 0 10 -21 10 -47 2 -70 39 -424 40
-383 1 32 -12 235 -25 377 -4 40 -10 63 -20 67 -8 3 -14 1 -14 -4z"/>
<path d="M173 1870 c0 -30 2 -43 4 -27 2 15 2 39 0 55 -2 15 -4 2 -4 -28z"/>
<path d="M2638 1864 c-8 -7 -1 -27 29 -79 22 -37 23 -38 17 -10 -9 41 -38 97
-46 89z"/>
<path d="M183 1730 c0 -41 2 -58 4 -37 2 20 2 54 0 75 -2 20 -4 3 -4 -38z"/>
<path d="M3617 883 c3 -21 10 -45 15 -53 6 -10 7 -1 3 25 -3 22 -6 46 -7 53
-1 6 -5 12 -9 12 -4 0 -5 -17 -2 -37z"/>
<path d="M1341 799 c-7 -12 -10 -23 -8 -26 3 -3 11 5 17 17 15 28 8 35 -9 9z"/>
<path d="M1178 753 c-27 -33 -45 -68 -56 -113 -36 -142 -41 -235 -17 -312 8
-29 10 -50 4 -53 -14 -9 -11 -25 6 -25 8 0 24 14 37 30 12 16 30 30 41 30 18
0 19 4 11 43 -5 23 -9 85 -9 137 0 89 2 100 38 174 29 61 35 82 26 92 -16 20
-63 17 -81 -3z"/>
<path d="M3400 746 c-38 -11 -62 -34 -55 -53 6 -18 -30 -147 -69 -249 -20 -49
-36 -84 -36 -79 -1 6 -5 1 -10 -10 -4 -11 -6 -30 -3 -43 3 -13 0 -22 -7 -22
-6 0 -9 -4 -6 -8 7 -12 -32 -92 -45 -92 -7 0 -9 -3 -6 -6 3 -4 0 -16 -8 -28
-8 -11 -15 -27 -15 -35 0 -8 -7 -22 -15 -31 -8 -8 -21 -33 -30 -53 l-16 -38
52 3 c51 3 52 4 80 53 15 28 33 61 39 75 6 14 19 43 29 65 11 22 22 53 26 69
3 15 13 39 22 52 14 22 22 24 94 24 80 0 84 -2 79 -40 -1 -8 -23 -40 -49 -70
-41 -48 -71 -90 -71 -102 0 -2 28 23 63 55 72 68 116 90 173 88 26 -2 45 3 53
13 7 9 18 13 24 9 11 -7 3 127 -12 188 -21 89 -93 215 -140 245 -35 24 -98 32
-141 20z"/>
<path d="M1271 664 c0 -11 3 -14 6 -6 3 7 2 16 -1 19 -3 4 -6 -2 -5 -13z"/>
<path d="M1266 631 c-4 -5 -3 -17 1 -27 5 -14 3 -16 -11 -11 -10 4 -15 3 -11
-3 3 -6 3 -15 -1 -21 -4 -8 -9 -7 -15 2 -6 10 -9 5 -9 -15 0 -24 2 -26 14 -17
12 10 17 8 26 -9 18 -33 33 -13 25 34 -3 22 -7 49 -8 59 -1 19 -3 21 -11 8z"/>
<path d="M1240 485 c0 -15 4 -24 10 -20 6 3 10 12 10 20 0 8 -4 17 -10 20 -6
4 -10 -5 -10 -20z"/>
<path d="M1350 494 c0 -13 18 -39 24 -34 2 3 -2 14 -10 24 -8 11 -14 16 -14
10z"/>
<path d="M1024 433 c-48 -56 -87 -113 -79 -113 4 0 21 11 39 25 18 14 37 25
42 25 5 0 2 -5 -6 -10 -8 -5 -10 -10 -5 -11 6 0 20 -2 33 -5 19 -3 22 0 23 34
1 20 2 50 3 65 1 16 -1 30 -5 32 -3 3 -24 -16 -45 -42z"/>
<path d="M1372 425 c0 -16 2 -22 5 -12 2 9 2 23 0 30 -3 6 -5 -1 -5 -18z"/>
<path d="M3722 171 c2 -7 7 -12 11 -12 12 1 9 15 -3 20 -7 2 -11 -2 -8 -8z"/>
<path d="M1439 36 c6 -7 7 -17 3 -21 -4 -5 -2 -5 5 -2 6 4 13 2 15 -4 2 -6 15
-9 28 -7 23 3 21 6 -18 25 -24 12 -39 16 -33 9z"/>
</g>
</svg>
